<svg width="20" height="25" viewBox="0 0 20 25" fill="none" xmlns="http://www.w3.org/2000/svg">
<g clip-path="url(#clip0_13_910)">
<path d="M9.9967 0C11.4362 0.00188931 12.8161 0.506798 13.834 1.40405C14.8519 2.30131 15.4247 3.5177 15.4268 4.78661V6.86339H19.1102C19.1409 6.86161 19.1717 6.86161 19.2023 6.86339C19.4211 6.88287 19.6238 6.97327 19.7712 7.11705C19.9186 7.26082 20.0001 7.44774 20 7.64152V24.2156C20.0005 24.3187 19.9778 24.4209 19.9332 24.5163C19.8887 24.6116 19.8231 24.6983 19.7404 24.7712C19.6577 24.8441 19.5594 24.9019 19.4512 24.9411C19.3431 24.9804 19.2272 25.0004 19.1102 25H0.884245C0.649273 24.9989 0.424374 24.9158 0.258886 24.7687C0.093399 24.6217 0.000839233 24.4228 0.00151253 24.2156V7.64152C0.00257874 7.43539 0.0959053 7.23797 0.261206 7.09218C0.426504 6.94638 0.650412 6.864 0.884245 6.86295H4.5666V4.78661C4.56861 3.51766 5.14136 2.3012 6.15926 1.40392C7.17717 0.506642 8.55717 0.00177153 9.9967 0V0ZM9.9967 1.5625C9.51537 1.55929 9.03812 1.64049 8.59273 1.80138C8.14733 1.96228 7.74268 2.19964 7.40232 2.49967C7.06195 2.79969 6.79268 3.15639 6.61016 3.54901C6.42764 3.94162 6.33552 4.36232 6.33916 4.78661V6.86339H13.6542V4.78661C13.6578 4.3623 13.5656 3.94159 13.3831 3.54898C13.2005 3.15636 12.9312 2.79966 12.5908 2.49964C12.2504 2.19962 11.8457 1.96226 11.4002 1.80138C10.9548 1.64049 10.4775 1.55929 9.9962 1.5625H9.9967ZM18.2274 8.42589H15.4263V10.0817C15.4263 10.2889 15.3329 10.4876 15.1667 10.6341C15.0005 10.7806 14.7751 10.8629 14.54 10.8629C14.305 10.8629 14.0795 10.7806 13.9133 10.6341C13.7471 10.4876 13.6537 10.2889 13.6537 10.0817V8.42589H6.33815V10.0817C6.33815 10.2889 6.24477 10.4876 6.07856 10.6341C5.91235 10.7806 5.68692 10.8629 5.45187 10.8629C5.21681 10.8629 4.99139 10.7806 4.82518 10.6341C4.65897 10.4876 4.56559 10.2889 4.56559 10.0817V8.42589H1.77154V23.4375H18.2269L18.2274 8.42589Z" fill="#EA12B9"/>
</g>
<defs>
<clipPath id="clip0_13_910">
<rect width="20" height="25" fill="white" transform="matrix(-1 0 0 1 20 0)"/>
</clipPath>
</defs>
</svg>
