<svg width="23" height="23" viewBox="0 0 23 23" fill="none" xmlns="http://www.w3.org/2000/svg">
<path d="M4.42308 23H18.5769C19.7495 22.9985 20.8737 22.5321 21.7029 21.7029C22.5321 20.8737 22.9985 19.7495 23 18.5769V6.19231C22.9985 5.01969 22.5321 3.89551 21.7029 3.06635C20.8737 2.23718 19.7495 1.7707 18.5769 1.76923H17.6923V0.884615C17.6923 0.650001 17.5991 0.424995 17.4332 0.259098C17.2673 0.0932002 17.0423 0 16.8077 0C16.5731 0 16.3481 0.0932002 16.1822 0.259098C16.0163 0.424995 15.9231 0.650001 15.9231 0.884615V1.76923H12.3846V0.884615C12.3846 0.650001 12.2914 0.424995 12.1255 0.259098C11.9596 0.0932002 11.7346 0 11.5 0C11.2654 0 11.0404 0.0932002 10.8745 0.259098C10.7086 0.424995 10.6154 0.650001 10.6154 0.884615V1.76923H7.07692V0.884615C7.07692 0.650001 6.98372 0.424995 6.81782 0.259098C6.65193 0.0932002 6.42692 0 6.19231 0C5.95769 0 5.73269 0.0932002 5.56679 0.259098C5.40089 0.424995 5.30769 0.650001 5.30769 0.884615V1.76923H4.42308C3.25046 1.7707 2.12628 2.23718 1.29711 3.06635C0.467945 3.89551 0.00147138 5.01969 0 6.19231V18.5769C0.00147138 19.7495 0.467945 20.8737 1.29711 21.7029C2.12628 22.5321 3.25046 22.9985 4.42308 23ZM18.5769 21.2308H4.42308C3.71927 21.2306 3.04434 20.951 2.54667 20.4533C2.04901 19.9557 1.76936 19.2807 1.76923 18.5769V8.84615H21.2308V18.5769C21.2306 19.2807 20.951 19.9557 20.4533 20.4533C19.9557 20.951 19.2807 21.2306 18.5769 21.2308ZM1.76923 6.19231C1.76936 5.4885 2.04901 4.81357 2.54667 4.3159C3.04434 3.81824 3.71927 3.5386 4.42308 3.53846H5.30769V4.42308C5.30769 4.65769 5.40089 4.8827 5.56679 5.04859C5.73269 5.21449 5.95769 5.30769 6.19231 5.30769C6.42692 5.30769 6.65193 5.21449 6.81782 5.04859C6.98372 4.8827 7.07692 4.65769 7.07692 4.42308V3.53846H10.6154V4.42308C10.6154 4.65769 10.7086 4.8827 10.8745 5.04859C11.0404 5.21449 11.2654 5.30769 11.5 5.30769C11.7346 5.30769 11.9596 5.21449 12.1255 5.04859C12.2914 4.8827 12.3846 4.65769 12.3846 4.42308V3.53846H15.9231V4.42308C15.9231 4.65769 16.0163 4.8827 16.1822 5.04859C16.3481 5.21449 16.5731 5.30769 16.8077 5.30769C17.0423 5.30769 17.2673 5.21449 17.4332 5.04859C17.5991 4.8827 17.6923 4.65769 17.6923 4.42308V3.53846H18.5769C19.2807 3.5386 19.9557 3.81824 20.4533 4.3159C20.951 4.81357 21.2306 5.4885 21.2308 6.19231V7.07692H1.76923V6.19231Z" fill="#EA12B9"/>
</svg>
