<svg width="33" height="33" viewBox="0 0 33 33" fill="none" xmlns="http://www.w3.org/2000/svg">
<path d="M32.625 24.0442V30.3795C32.6252 30.8331 32.4534 31.2699 32.1441 31.6018C31.8349 31.9336 31.4112 32.1358 30.9588 32.1676C30.1758 32.2213 29.5362 32.25 29.0417 32.25C13.2087 32.25 0.375 19.4163 0.375 3.58333C0.375 3.08883 0.401875 2.44921 0.457417 1.66625C0.489169 1.21375 0.691375 0.790144 1.02323 0.480899C1.35509 0.171654 1.79189 -0.000205026 2.2455 4.59705e-07H8.58083C8.80307 -0.000224558 9.01746 0.0821641 9.18235 0.231162C9.34724 0.380159 9.45086 0.585128 9.47308 0.806251C9.51429 1.21833 9.55192 1.54621 9.58775 1.79525C9.94382 4.28015 10.6735 6.69695 11.7521 8.96371C11.9223 9.32204 11.8112 9.75025 11.4887 9.97958L7.62229 12.7423C9.98631 18.2507 14.3761 22.6405 19.8845 25.0045L22.6436 21.1453C22.7564 20.9876 22.9209 20.8745 23.1086 20.8257C23.2962 20.7769 23.495 20.7955 23.6703 20.8783C25.9368 21.9548 28.3529 22.6827 30.8369 23.0372C31.086 23.0731 31.4138 23.1125 31.8223 23.1519C32.0431 23.1746 32.2477 23.2784 32.3963 23.4432C32.5449 23.6081 32.6271 23.8222 32.6268 24.0442H32.625Z" fill="white"/>
</svg>
