<svg width="32" height="32" viewBox="0 0 32 32" fill="none" xmlns="http://www.w3.org/2000/svg">
<path d="M22.6668 10.6667H26.6668L30.6668 16.0747V24H27.9535C27.795 25.1124 27.2404 26.1302 26.3917 26.8666C25.543 27.6029 24.4571 28.0084 23.3335 28.0084C22.2099 28.0084 21.124 27.6029 20.2753 26.8666C19.4265 26.1302 18.872 25.1124 18.7135 24H11.9535C11.795 25.1124 11.2404 26.1302 10.3917 26.8666C9.54302 27.6029 8.45712 28.0084 7.3335 28.0084C6.20987 28.0084 5.12397 27.6029 4.27526 26.8666C3.42654 26.1302 2.872 25.1124 2.7135 24H1.3335V8C1.3335 7.64638 1.47397 7.30724 1.72402 7.05719C1.97407 6.80714 2.31321 6.66667 2.66683 6.66667H21.3335C21.6871 6.66667 22.0263 6.80714 22.2763 7.05719C22.5264 7.30724 22.6668 7.64638 22.6668 8V10.6667ZM22.6668 13.3333V17.3333H28.0002V16.9533L25.3228 13.3333H22.6668Z" fill="#EA12B9"/>
</svg>
