<svg width="20" height="22" viewBox="0 0 20 22" fill="none" xmlns="http://www.w3.org/2000/svg">
<g clip-path="url(#clip0_4_755)">
<path d="M10 0C4.48156 0 0 4.23558 0 9.43396C0.0102021 10.8112 0.324569 12.1677 0.918937 13.3991C1.5133 14.6306 2.37185 15.7042 3.42857 16.5375C3.42033 16.7462 3.39898 16.9542 3.36468 17.1601C3.29404 17.698 3.08907 18.2073 2.77013 18.6376C2.45118 19.0679 2.02935 19.4041 1.54649 19.6129C1.37096 19.6682 1.21564 19.7773 1.10092 19.9259C0.986202 20.0744 0.917448 20.2555 0.903683 20.4453C0.889919 20.6352 0.931787 20.8249 1.02379 20.9896C1.1158 21.1543 1.25364 21.2863 1.41922 21.3682C2.27198 21.7859 3.20352 22.0017 4.14649 22C4.63854 22.0002 5.12912 21.9441 5.60935 21.8329C7.4509 21.3608 9.11491 20.3294 10.3886 18.8706C15.7252 18.6728 19.999 14.5121 19.999 9.43666C19.999 4.36119 15.5184 0 10 0ZM10 16.9811C9.85346 16.9814 9.70914 17.0183 9.57934 17.0889C9.44955 17.1595 9.33811 17.2616 9.25455 17.3865C8.2135 18.6379 6.83659 19.5388 5.29974 19.9741C4.87673 20.074 4.4428 20.1152 4.00935 20.0965C4.6217 19.3474 5.02975 18.4418 5.19117 17.4739C5.26859 16.9931 5.29904 16.5054 5.28208 16.0183C5.27851 15.8718 5.2421 15.7281 5.17574 15.5987C5.10938 15.4693 5.01488 15.3577 4.89974 15.2728C3.97098 14.629 3.2058 13.7619 2.66928 12.7454C2.13276 11.7288 1.84079 10.5928 1.81818 9.43396C1.81818 5.27385 5.45455 1.88679 10 1.88679C14.5455 1.88679 18.1818 5.27385 18.1818 9.43396C18.1818 13.5941 14.5455 16.9811 10 16.9811ZM14.5455 7.54717C14.5456 7.6711 14.5222 7.79384 14.4765 7.90836C14.4309 8.02288 14.3639 8.12694 14.2795 8.21457C14.195 8.3022 14.0948 8.37168 13.9844 8.41904C13.8741 8.4664 13.7558 8.49071 13.6364 8.49057H6.36364C6.12253 8.49057 5.8913 8.39117 5.72081 8.21425C5.55032 8.03733 5.45455 7.79737 5.45455 7.54717C5.45455 7.29697 5.55032 7.05701 5.72081 6.88009C5.8913 6.70317 6.12253 6.60377 6.36364 6.60377H13.6364C13.7558 6.60363 13.8741 6.62794 13.9844 6.6753C14.0948 6.72266 14.195 6.79214 14.2795 6.87977C14.3639 6.9674 14.4309 7.07146 14.4765 7.18598C14.5222 7.3005 14.5456 7.42324 14.5455 7.54717ZM14.5455 11.3208C14.5456 11.4447 14.5222 11.5674 14.4765 11.6819C14.4309 11.7965 14.3639 11.9005 14.2795 11.9882C14.195 12.0758 14.0948 12.1453 13.9844 12.1926C13.8741 12.24 13.7558 12.2643 13.6364 12.2642H6.36364C6.12253 12.2642 5.8913 12.1648 5.72081 11.9878C5.55032 11.8109 5.45455 11.571 5.45455 11.3208C5.45455 11.0706 5.55032 10.8306 5.72081 10.6537C5.8913 10.4768 6.12253 10.3774 6.36364 10.3774H13.6364C13.7558 10.3772 13.8741 10.4015 13.9844 10.4489C14.0948 10.4962 14.195 10.5657 14.2795 10.6534C14.3639 10.741 14.4309 10.845 14.4765 10.9596C14.5222 11.0741 14.5456 11.1968 14.5455 11.3208Z" fill="#EA12B9"/>
</g>
<defs>
<clipPath id="clip0_4_755">
<rect width="20" height="22" fill="white"/>
</clipPath>
</defs>
</svg>
