<svg width="18" height="18" viewBox="0 0 18 18" fill="none" xmlns="http://www.w3.org/2000/svg">
<path d="M3 11.25V6.375C3 5.47989 3.35558 4.62145 3.98851 3.98851C4.62145 3.35558 5.47989 3 6.375 3C7.27011 3 8.12855 3.35558 8.76149 3.98851C9.39442 4.62145 9.75 5.47989 9.75 6.375V11.625C9.75 12.1223 9.94754 12.5992 10.2992 12.9508C10.6508 13.3025 11.1277 13.5 11.625 13.5C12.1223 13.5 12.5992 13.3025 12.9508 12.9508C13.3025 12.5992 13.5 12.1223 13.5 11.625V6.6225C12.9994 6.44557 12.5774 6.09735 12.3087 5.6394C12.04 5.18144 11.9419 4.64323 12.0316 4.11991C12.1214 3.59658 12.3933 3.12184 12.7992 2.77959C13.2052 2.43735 13.719 2.24963 14.25 2.24963C14.781 2.24963 15.2948 2.43735 15.7008 2.77959C16.1067 3.12184 16.3786 3.59658 16.4684 4.11991C16.5581 4.64323 16.46 5.18144 16.1913 5.6394C15.9226 6.09735 15.5006 6.44557 15 6.6225V11.625C15 12.5201 14.6444 13.3785 14.0115 14.0115C13.3785 14.6444 12.5201 15 11.625 15C10.7299 15 9.87145 14.6444 9.23851 14.0115C8.60558 13.3785 8.25 12.5201 8.25 11.625V6.375C8.25 5.87772 8.05246 5.40081 7.70083 5.04917C7.34919 4.69754 6.87228 4.5 6.375 4.5C5.87772 4.5 5.40081 4.69754 5.04917 5.04917C4.69754 5.40081 4.5 5.87772 4.5 6.375V11.25H6.75L3.75 15L0.75 11.25H3ZM14.25 5.25C14.4489 5.25 14.6397 5.17098 14.7803 5.03033C14.921 4.88968 15 4.69891 15 4.5C15 4.30109 14.921 4.11032 14.7803 3.96967C14.6397 3.82902 14.4489 3.75 14.25 3.75C14.0511 3.75 13.8603 3.82902 13.7197 3.96967C13.579 4.11032 13.5 4.30109 13.5 4.5C13.5 4.69891 13.579 4.88968 13.7197 5.03033C13.8603 5.17098 14.0511 5.25 14.25 5.25Z" fill="black"/>
</svg>
