<svg width="37" height="30" viewBox="0 0 37 30" fill="none" xmlns="http://www.w3.org/2000/svg">
<path d="M3.33333 4.16667V1.655C3.33638 1.2173 3.5115 0.798362 3.82085 0.488696C4.13021 0.17903 4.54897 0.00349108 4.98667 0H35.0133C35.9267 0 36.6667 0.741667 36.6667 1.655V28.345C36.6636 28.7827 36.4885 29.2016 36.1791 29.5113C35.8698 29.821 35.451 29.9965 35.0133 30H4.98667C4.54802 29.9996 4.12749 29.825 3.81748 29.5147C3.50747 29.2043 3.33333 28.7836 3.33333 28.345V26.6667H33.3333V7.16667L20 19.1667L3.33333 4.16667ZM0 11.6667H8.33333V15H0V11.6667ZM0 20H13.3333V23.3333H0V20Z" fill="white"/>
</svg>
