<svg width="27" height="27" viewBox="0 0 27 27" fill="none" xmlns="http://www.w3.org/2000/svg">
<g clip-path="url(#clip0_13_761)">
<path d="M25.9637 12.4615H23.8333C23.3455 7.56593 19.4358 3.65657 14.5393 3.1682V1.03846C14.5393 0.763044 14.4299 0.498908 14.2351 0.304158C14.0404 0.109409 13.7762 0 13.5008 0C13.2253 0 12.9612 0.109409 12.7664 0.304158C12.5717 0.498908 12.4623 0.763044 12.4623 1.03846V3.16701C7.56692 3.65657 3.65671 7.56593 3.1683 12.4609H1.03902C0.763583 12.4609 0.499429 12.5704 0.304667 12.7651C0.109905 12.9599 0.000488281 13.224 0.000488281 13.4994C0.000488281 13.7748 0.109905 14.039 0.304667 14.2337C0.499429 14.4285 0.763583 14.5379 1.03902 14.5379H3.1683C3.65671 19.4341 7.56277 23.3428 12.4617 23.8312V25.9615C12.4617 26.237 12.5711 26.5011 12.7658 26.6958C12.9606 26.8906 13.2248 27 13.5002 27C13.7756 27 14.0398 26.8906 14.2345 26.6958C14.4293 26.5011 14.5387 26.237 14.5387 25.9615V23.8312C19.4376 23.3422 23.3443 19.437 23.8327 14.5379H25.9637C26.2392 14.5379 26.5033 14.4285 26.6981 14.2337C26.8929 14.039 27.0023 13.7748 27.0023 13.4994C27.0023 13.224 26.8929 12.9599 26.6981 12.7651C26.5033 12.5704 26.2392 12.4609 25.9637 12.4609V12.4615ZM14.5399 21.7359V20.7692C14.5399 20.4938 14.4305 20.2297 14.2357 20.0349C14.041 19.8402 13.7768 19.7308 13.5014 19.7308C13.2259 19.7308 12.9618 19.8402 12.767 20.0349C12.5723 20.2297 12.4628 20.4938 12.4628 20.7692V21.7359C10.6353 21.5029 8.93678 20.6696 7.63402 19.367C6.33126 18.0643 5.49797 16.3659 5.26495 14.5385H6.23167C6.5071 14.5385 6.77126 14.4291 6.96602 14.2343C7.16078 14.0396 7.2702 13.7754 7.2702 13.5C7.2702 13.2246 7.16078 12.9604 6.96602 12.7657C6.77126 12.5709 6.5071 12.4615 6.23167 12.4615H5.26495C5.49797 10.6341 6.33126 8.9357 7.63402 7.63303C8.93678 6.33035 10.6353 5.49712 12.4628 5.26411V6.23077C12.4628 6.50619 12.5723 6.77032 12.767 6.96507C12.9618 7.15982 13.2259 7.26923 13.5014 7.26923C13.7768 7.26923 14.041 7.15982 14.2357 6.96507C14.4305 6.77032 14.5399 6.50619 14.5399 6.23077V5.26411C16.3676 5.49692 18.0662 6.33009 19.369 7.63281C20.6718 8.93552 21.505 10.634 21.7378 12.4615H20.7711C20.4957 12.4615 20.2315 12.5709 20.0367 12.7657C19.842 12.9604 19.7326 13.2246 19.7326 13.5C19.7326 13.7754 19.842 14.0396 20.0367 14.2343C20.2315 14.4291 20.4957 14.5385 20.7711 14.5385H21.7378C21.5048 16.3659 20.6715 18.0643 19.3687 19.367C18.066 20.6696 16.3675 21.5029 14.5399 21.7359ZM13.5014 9.34615C12.6798 9.34615 11.8766 9.58977 11.1935 10.0462C10.5103 10.5026 9.97789 11.1514 9.66347 11.9104C9.34906 12.6694 9.26679 13.5046 9.42708 14.3104C9.58737 15.1161 9.98301 15.8563 10.564 16.4372C11.1449 17.0181 11.8851 17.4138 12.691 17.574C13.4968 17.7343 14.332 17.652 15.0911 17.3377C15.8502 17.0233 16.4989 16.4909 16.9554 15.8078C17.4119 15.1247 17.6555 14.3216 17.6555 13.5C17.6546 12.3986 17.2166 11.3426 16.4377 10.5638C15.6589 9.78504 14.6028 9.3471 13.5014 9.34615ZM13.5014 15.5769C13.0906 15.5769 12.689 15.4551 12.3474 15.2269C12.0059 14.9987 11.7396 14.6743 11.5824 14.2948C11.4252 13.9153 11.3841 13.4977 11.4642 13.0948C11.5444 12.6919 11.7422 12.3219 12.0327 12.0314C12.3232 11.7409 12.6933 11.5431 13.0962 11.463C13.4991 11.3828 13.9167 11.424 14.2962 11.5812C14.6758 11.7384 15.0002 12.0046 15.2284 12.3461C15.4566 12.6877 15.5784 13.0892 15.5784 13.5C15.5784 14.0508 15.3596 14.5791 14.9701 14.9686C14.5806 15.3581 14.0522 15.5769 13.5014 15.5769Z" fill="#EA12B9"/>
</g>
<defs>
<clipPath id="clip0_13_761">
<rect width="27" height="27" fill="white"/>
</clipPath>
</defs>
</svg>
