<svg width="35" height="35" viewBox="0 0 35 35" fill="none" xmlns="http://www.w3.org/2000/svg">
<path d="M17.4799 1.15381e-05C21.5295 -0.00463671 25.4553 1.39529 28.5883 3.96117C31.7212 6.52704 33.8673 10.1 34.6608 14.0711C35.4542 18.0422 34.8459 22.1656 32.9395 25.7383C31.0331 29.3111 27.9467 32.1122 24.2063 33.664C20.4658 35.2159 16.303 35.4225 12.4273 34.2487C8.55158 33.0748 5.20293 30.5931 2.95213 27.2267C0.701332 23.8603 -0.312286 19.8174 0.0840454 15.7873C0.480377 11.7571 2.26213 7.98919 5.12559 5.12569C8.40146 1.84705 12.8452 0.00339382 17.4799 1.15381e-05ZM2.75753 16.1354H9.44219C9.41813 11.7625 10.4629 7.44991 12.4856 3.57285C9.83813 4.52625 7.51705 6.2142 5.79419 8.43905C4.07133 10.6639 3.018 13.3336 2.75753 16.1354ZM17.4799 32.2708C19.8825 32.2708 22.551 26.6042 22.8299 18.8246H12.1291C12.4088 26.6042 15.0765 32.2708 17.4799 32.2708ZM22.8299 16.1354C22.551 8.35585 19.8825 2.68925 17.4799 2.68925C15.0773 2.68925 12.4088 8.35585 12.1299 16.1354H22.8299ZM22.4742 3.57285C24.4969 7.44991 25.5417 11.7625 25.5176 16.1354H32.2023C31.9418 13.3336 30.8885 10.6639 29.1656 8.43905C27.4428 6.2142 25.1217 4.52625 22.4742 3.57285ZM32.2023 18.8246H25.5176C25.5413 23.1975 24.4965 27.51 22.4742 31.3872C25.1217 30.4339 27.4429 28.746 29.1658 26.5211C30.8886 24.2962 31.9419 21.6265 32.2023 18.8246ZM12.4856 31.3872C10.4629 27.5102 9.41813 23.1976 9.44219 18.8246H2.75753C3.018 21.6265 4.07133 24.2962 5.79419 26.521C7.51705 28.7459 9.83813 30.4338 12.4856 31.3872Z" fill="white"/>
</svg>
