<svg width="21" height="20" viewBox="0 0 21 20" fill="none" xmlns="http://www.w3.org/2000/svg">
<g clip-path="url(#clip0_4_1017)">
<path d="M11.5169 0.00385857C11.4961 0.00171571 11.475 -0.000427246 11.4539 -0.000427246C10.8951 -0.000427246 10.5088 0.466359 10.5088 1.04243C10.5088 1.61029 10.7231 2.07172 11.5629 2.0835V2.08672C15.5528 2.14314 19.0428 5.65814 19.0428 9.97493C19.0428 14.3253 15.5812 17.9149 11.3635 17.9149C7.33901 17.9149 3.99819 14.7821 3.70395 10.6649H5.47977L2.73919 5.96814L0 10.6685H1.67993C1.97694 15.8681 6.19148 20.0017 11.3299 20.0017C16.6608 20.0017 21 15.5042 21 10.0017C21 4.566 16.7623 0.108859 11.5151 0.00528717L11.5169 0.00385857Z" fill="#EA12B9"/>
<path d="M12.4031 4.86283C12.4031 4.37211 12.0223 3.95068 11.5467 3.95068H11.3615C10.8869 3.95068 10.5134 4.37211 10.5134 4.86283V10.1068L8.02375 12.6707C7.65613 13.05 7.67517 13.6653 8.02375 14.0425C8.37234 14.4196 8.98332 14.4235 9.3506 14.0425L12.1026 11.2039C12.1234 11.18 12.1403 11.1564 12.1614 11.1346C12.3174 10.9677 12.4043 10.7447 12.4038 10.5128V4.86283H12.4031Z" fill="#EA12B9"/>
</g>
<defs>
<clipPath id="clip0_4_1017">
<rect width="21" height="20" fill="white"/>
</clipPath>
</defs>
</svg>
