<svg width="55" height="80" viewBox="0 0 55 80" fill="none" xmlns="http://www.w3.org/2000/svg">
<path d="M14.0046 13.6388H9.59243C7.14623 13.6363 4.80094 12.6634 3.07121 10.9337C1.34148 9.20394 0.368602 6.85865 0.366069 4.41244V0.79464H4.77826C7.22446 0.797173 9.56976 1.77005 11.2995 3.49978C13.0292 5.2295 14.0021 7.57479 14.0046 10.021V13.6388Z" fill="#E305B7"/>
<path d="M14.0046 15.9741V57.8468C14.0046 61.464 12.5677 64.933 10.01 67.4907C7.45225 70.0485 3.98323 71.4854 0.366058 71.4854V29.6126C0.366058 25.9955 1.80297 22.5265 4.3607 19.9687C6.91842 17.411 10.3874 15.9741 14.0046 15.9741Z" fill="url(#paint0_linear_21_267)"/>
<path d="M41.9804 50.9558L30.0071 37.614L32.687 35.2021C34.0234 34.0033 35.1105 32.5529 35.8862 30.9338C36.662 29.3147 37.1111 27.5587 37.208 25.766C37.3048 23.9733 37.0476 22.179 36.4508 20.4858C35.8541 18.7925 34.9296 17.2334 33.7302 15.8976L20.8191 27.4784C18.1202 29.9017 16.4912 33.2954 16.2885 36.9169C16.0859 40.5384 17.326 44.0927 19.7376 46.802L40.7936 70.2986L40.918 70.1838C42.2497 68.9917 43.3335 67.5489 44.1076 65.9379C44.8817 64.3269 45.3309 62.5792 45.4296 60.7946C45.5282 59.01 45.2744 57.2234 44.6826 55.5369C44.0907 53.8504 43.1725 52.297 41.9804 50.9654V50.9558Z" fill="url(#paint1_linear_21_267)"/>
<path d="M29.72 37.8628L30.0741 37.547L50.7568 60.5746C53.1314 63.2183 54.3585 66.6971 54.1682 70.2455C53.9779 73.794 52.3859 77.1216 49.7423 79.4963L49.3882 79.8121L28.7246 56.8419C26.35 54.1982 25.1229 50.7194 25.3132 47.171C25.5034 43.6225 27.0955 40.2949 29.7391 37.9202L29.72 37.8628Z" fill="url(#paint2_linear_21_267)"/>
<defs>
<linearGradient id="paint0_linear_21_267" x1="29.524" y1="68.0548" x2="28.929" y2="11.3794" gradientUnits="userSpaceOnUse">
<stop stop-color="#E305B7"/>
<stop offset="0.31" stop-color="#EA12B9"/>
<stop offset="0.89" stop-color="#FB35BD"/>
<stop offset="1" stop-color="#FF3CBE"/>
</linearGradient>
<linearGradient id="paint1_linear_21_267" x1="19.5989" y1="54.928" x2="42.8224" y2="24.3518" gradientUnits="userSpaceOnUse">
<stop stop-color="#E305B7"/>
<stop offset="1" stop-color="#FF3CBE"/>
</linearGradient>
<linearGradient id="paint2_linear_21_267" x1="40.7014" y1="54.8865" x2="1.48602" y2="12.6576" gradientUnits="userSpaceOnUse">
<stop stop-color="#E305B7"/>
<stop offset="0.52" stop-color="#FF3CBE"/>
</linearGradient>
</defs>
</svg>
