<svg width="27" height="27" viewBox="0 0 27 27" fill="none" xmlns="http://www.w3.org/2000/svg">
<path d="M21.7746 3.28017C19.6957 1.26854 16.9259 0.162761 14.0562 0.198855C11.1866 0.234949 8.4445 1.41006 6.41521 3.47336C4.38592 5.53667 3.23019 8.32473 3.19469 11.2425C3.15919 14.1602 4.24674 16.9765 6.22521 19.0902L13.9999 26.9952L21.7785 19.0902C22.7993 18.0519 23.6089 16.8193 24.1612 15.4628C24.7135 14.1063 24.9975 12.6525 24.9972 11.1844C24.9968 9.71624 24.712 8.26257 24.1591 6.90637C23.6061 5.55016 22.7959 4.31797 21.7746 3.28017ZM20.4819 17.7759L13.9999 24.3666L7.51471 17.7759C6.23284 16.4721 5.35996 14.8112 5.00644 13.0031C4.65291 11.1949 4.83463 9.32085 5.5286 7.61772C6.22258 5.9146 7.39764 4.45894 8.90523 3.4348C10.4128 2.41066 12.1852 1.86404 13.9983 1.86404C15.8114 1.86404 17.5838 2.41066 19.0914 3.4348C20.599 4.45894 21.7741 5.9146 22.468 7.61772C23.162 9.32085 23.3437 11.1949 22.9902 13.0031C22.6367 14.8112 21.7638 16.4721 20.4819 17.7759Z" fill="#EA12B9"/>
<path d="M17.4804 6.95879C16.674 6.14211 15.6142 5.6349 14.4813 5.52353C13.3484 5.41217 12.2126 5.70354 11.2673 6.34802C10.322 6.9925 9.62558 7.95023 9.29676 9.05812C8.96793 10.166 9.02699 11.3555 9.46387 12.4241C9.90074 13.4927 10.6884 14.3743 11.6928 14.9187C12.6971 15.4631 13.856 15.6367 14.9721 15.4099C16.0882 15.1831 17.0925 14.57 17.8139 13.6749C18.5353 12.7798 18.9292 11.6581 18.9286 10.5009C18.9286 9.84257 18.8007 9.19075 18.5522 8.58287C18.3037 7.97499 17.9395 7.42306 17.4804 6.95879ZM16.1878 12.7263C15.7549 13.1655 15.2037 13.4645 14.6038 13.5853C14.004 13.7062 13.3823 13.6435 12.8174 13.4053C12.2525 13.1671 11.7697 12.7639 11.4301 12.2468C11.0905 11.7297 10.9092 11.1219 10.9092 10.5001C10.9092 9.87827 11.0905 9.27041 11.4301 8.75331C11.7697 8.23621 12.2525 7.83308 12.8174 7.59484C13.3823 7.35661 14.004 7.29397 14.6038 7.41483C15.2037 7.53569 15.7549 7.83464 16.1878 8.2739C16.7683 8.86444 17.0943 9.66517 17.0943 10.5001C17.0943 11.335 16.7683 12.1357 16.1878 12.7263Z" fill="#EA12B9"/>
</svg>
