<svg width="32" height="32" viewBox="0 0 32 32" fill="none" xmlns="http://www.w3.org/2000/svg">
<path d="M15.9998 29.3334C8.63584 29.3334 2.6665 23.364 2.6665 16C2.6665 8.63602 8.63584 2.66669 15.9998 2.66669C23.3638 2.66669 29.3332 8.63602 29.3332 16C29.3332 23.364 23.3638 29.3334 15.9998 29.3334ZM13.3998 14.6667C13.5153 14.0996 13.7765 13.5723 14.1576 13.1368C14.5388 12.7013 15.0267 12.3725 15.5735 12.1828C16.1203 11.9931 16.707 11.949 17.276 12.0549C17.845 12.1608 18.3766 12.413 18.8185 12.7867L21.0865 11.276C20.3077 10.4277 19.3012 9.82143 18.1872 9.52958C17.0732 9.23774 15.8987 9.27265 14.804 9.63014C13.7093 9.98764 12.7406 10.6526 12.0136 11.5457C11.2865 12.4388 10.8319 13.5222 10.7038 14.6667H9.33317V17.3334H10.7025C10.8303 18.4781 11.2849 19.5619 12.0121 20.4552C12.7392 21.3486 13.7081 22.0137 14.8031 22.3713C15.898 22.7288 17.0728 22.7636 18.187 22.4715C19.3012 22.1794 20.3078 21.5728 21.0865 20.724L18.8185 19.212C18.3767 19.5857 17.8452 19.838 17.2763 19.9439C16.7074 20.0499 16.1207 20.0059 15.574 19.8164C15.0272 19.6268 14.5392 19.2982 14.158 18.8628C13.7768 18.4275 13.5155 17.9003 13.3998 17.3334L19.9998 17.3347V14.668H13.3998V14.6667Z" fill="black"/>
</svg>
