<svg width="231" height="130" viewBox="0 0 231 130" fill="none" xmlns="http://www.w3.org/2000/svg">
<path d="M60.7181 38.8065V92.5312H47.6543V58.9335L36.1137 92.5312H24.8085L13.0637 58.8549V92.5312H3.05176e-05V38.8065H15.9685L30.5396 76.2281L44.8281 38.8065H60.7181Z" fill="white"/>
<path d="M79.5757 49.8221L89.8131 76.0077L99.3597 49.8221H113.789L87.2067 112.894H72.8554L82.8574 90.8631L64.9889 49.8221H79.5757Z" fill="white"/>
<path d="M147.846 21.1185H155.085V15.1701C155.085 13.1753 154.692 11.2 153.929 9.35746C153.167 7.51489 152.049 5.84115 150.64 4.43207C149.231 3.02298 147.559 1.90623 145.719 1.14572C143.879 0.385203 141.907 -0.00413648 139.917 2.13331e-06H132.679V5.96418C132.679 7.95826 133.071 9.93273 133.834 11.7744C134.597 13.6161 135.715 15.2888 137.124 16.6966C138.533 18.1045 140.205 19.2197 142.045 19.9785C143.885 20.7373 145.857 21.1247 147.846 21.1185Z" fill="white"/>
<path d="M132.71 116.23V47.3986C132.71 41.4513 135.067 35.7475 139.263 31.542C143.459 27.3366 149.151 24.974 155.085 24.974V93.8058C155.085 99.7532 152.727 105.457 148.531 109.662C144.335 113.868 138.644 116.23 132.71 116.23Z" fill="url(#paint0_linear_24_267)"/>
<path d="M200.996 82.4755L181.338 60.5387L185.734 56.573C187.925 54.6022 189.707 52.218 190.978 49.5566C192.249 46.8953 192.984 44.009 193.142 41.0628C193.299 38.1165 192.876 35.168 191.896 32.3858C190.916 29.6036 189.398 27.0422 187.43 24.8481L166.264 43.8893C164.014 45.915 162.198 48.3777 160.926 51.1282C159.041 55.1143 158.374 59.5698 159.008 63.9348C159.642 68.2998 161.549 72.3795 164.49 75.6615L199.112 114.295L199.332 114.106C201.514 112.139 203.288 109.76 204.552 107.106C205.817 104.452 206.547 101.574 206.702 98.6363C206.857 95.699 206.432 92.7599 205.453 89.987C204.474 87.2141 202.96 84.6617 200.996 82.4755Z" fill="url(#paint1_linear_24_267)"/>
<path d="M180.81 60.9153L181.394 60.3895L215.325 98.2513C219.221 102.598 221.234 108.318 220.922 114.153C220.61 119.988 217.998 125.459 213.661 129.363L213.076 129.889L179.197 92.086C177.256 89.9356 175.758 87.4222 174.788 84.6902C173.818 81.9581 173.396 79.061 173.546 76.1651C173.696 73.2692 174.414 70.4314 175.661 67.8145C176.907 65.1975 178.657 62.853 180.81 60.9153Z" fill="url(#paint2_linear_24_267)"/>
<defs>
<linearGradient id="paint0_linear_24_267" x1="143.921" y1="54.0237" x2="143.81" y2="117.096" gradientUnits="userSpaceOnUse">
<stop stop-color="white"/>
<stop offset="0.17" stop-color="#F4F4F4"/>
<stop offset="0.48" stop-color="#D6D6D6"/>
<stop offset="0.79" stop-color="#B2B2B2"/>
</linearGradient>
<linearGradient id="paint1_linear_24_267" x1="178.323" y1="52.4815" x2="188.431" y2="113.123" gradientUnits="userSpaceOnUse">
<stop stop-color="white"/>
<stop offset="0.17" stop-color="#F4F4F4"/>
<stop offset="0.47" stop-color="#D6D6D6"/>
<stop offset="0.78" stop-color="#B2B2B2"/>
</linearGradient>
<linearGradient id="paint2_linear_24_267" x1="184.519" y1="80.3046" x2="216.842" y2="115.027" gradientUnits="userSpaceOnUse">
<stop stop-color="white"/>
<stop offset="0.67" stop-color="#C8C8C8"/>
<stop offset="1" stop-color="#B2B2B2"/>
</linearGradient>
</defs>
</svg>
