<svg width="26" height="23" viewBox="0 0 26 23" fill="none" xmlns="http://www.w3.org/2000/svg">
<path d="M16.5001 0.33332C17.3194 0.333223 18.1243 0.548841 18.8339 0.958495C19.5435 1.36815 20.1327 1.9574 20.5423 2.667C20.9519 3.37659 21.1675 4.18153 21.1673 5.00086C21.1671 5.82019 20.9513 6.62504 20.5414 7.33449L25.8334 7.33332V9.66665H23.5001V21.3333C23.5001 21.6427 23.3772 21.9395 23.1584 22.1583C22.9396 22.3771 22.6428 22.5 22.3334 22.5H3.66675C3.35733 22.5 3.06058 22.3771 2.84179 22.1583C2.623 21.9395 2.50008 21.6427 2.50008 21.3333V9.66665H0.166748V7.33332L5.45875 7.33449C4.87992 6.33219 4.69422 5.15055 4.93769 4.01902C5.18117 2.88749 5.83645 1.88682 6.7763 1.2113C7.71616 0.53578 8.8735 0.233628 10.0236 0.363512C11.1737 0.493396 12.2346 1.04605 13.0001 1.91415C13.4371 1.41643 13.9755 1.01789 14.5791 0.745244C15.1828 0.4726 15.8377 0.332153 16.5001 0.33332ZM11.8334 9.66665H4.83341V20.1667H11.8334V9.66665ZM21.1667 9.66665H14.1667V20.1667H21.1667V9.66665ZM9.50008 2.66665C8.8946 2.66394 8.31178 2.8967 7.87474 3.31576C7.4377 3.73482 7.18067 4.30736 7.15795 4.91242C7.13523 5.51748 7.3486 6.10767 7.75299 6.55832C8.15737 7.00897 8.7211 7.28478 9.32508 7.32749L9.50008 7.33332H11.8334V4.99999C11.8334 4.44239 11.6338 3.90322 11.2706 3.48012C10.9074 3.05702 10.4047 2.77796 9.85358 2.69349L9.67391 2.67249L9.50008 2.66665ZM16.5001 2.66665C15.9114 2.66647 15.3444 2.88879 14.9128 3.28907C14.4811 3.68934 14.2167 4.23797 14.1726 4.82499L14.1667 4.99999V7.33332H16.5001C17.0888 7.33351 17.6557 7.11118 18.0874 6.71091C18.519 6.31063 18.7834 5.762 18.8276 5.17499L18.8334 4.99999C18.8334 4.38115 18.5876 3.78766 18.15 3.35007C17.7124 2.91249 17.1189 2.66665 16.5001 2.66665Z" fill="black" fill-opacity="0.9"/>
</svg>
