<svg width="28" height="28" viewBox="0 0 28 28" fill="none" xmlns="http://www.w3.org/2000/svg">
<path d="M5.83341 23.3333H22.1667V25.6667H5.83341V23.3333ZM14.0001 21C11.5247 21 9.15076 20.0167 7.40042 18.2663C5.65008 16.516 4.66675 14.142 4.66675 11.6667C4.66675 9.19132 5.65008 6.81735 7.40042 5.06701C9.15076 3.31667 11.5247 2.33334 14.0001 2.33334C16.4754 2.33334 18.8494 3.31667 20.5997 5.06701C22.3501 6.81735 23.3334 9.19132 23.3334 11.6667C23.3334 14.142 22.3501 16.516 20.5997 18.2663C18.8494 20.0167 16.4754 21 14.0001 21ZM14.0001 18.6667C15.8566 18.6667 17.6371 17.9292 18.9498 16.6164C20.2626 15.3037 21.0001 13.5232 21.0001 11.6667C21.0001 9.81016 20.2626 8.02968 18.9498 6.71693C17.6371 5.40418 15.8566 4.66668 14.0001 4.66668C12.1436 4.66668 10.3631 5.40418 9.05033 6.71693C7.73758 8.02968 7.00008 9.81016 7.00008 11.6667C7.00008 13.5232 7.73758 15.3037 9.05033 16.6164C10.3631 17.9292 12.1436 18.6667 14.0001 18.6667Z" fill="black" fill-opacity="0.9"/>
</svg>
