<svg width="42" height="42" viewBox="0 0 42 42" fill="none" xmlns="http://www.w3.org/2000/svg">
<path d="M15.6888 31.5C15.4807 32.96 14.7529 34.2959 13.6389 35.2624C12.525 36.2289 11.0998 36.761 9.625 36.761C8.15024 36.761 6.725 36.2289 5.61106 35.2624C4.49712 34.2959 3.76929 32.96 3.56125 31.5H1.75V10.5C1.75 10.0359 1.93437 9.59075 2.26256 9.26256C2.59075 8.93437 3.03587 8.75 3.5 8.75H28C28.4641 8.75 28.9093 8.93437 29.2374 9.26256C29.5656 9.59075 29.75 10.0359 29.75 10.5V14H35L40.25 21.098V31.5H36.6888C36.4807 32.96 35.7529 34.2959 34.6389 35.2624C33.525 36.2289 32.0998 36.761 30.625 36.761C29.1502 36.761 27.725 36.2289 26.6111 35.2624C25.4971 34.2959 24.7693 32.96 24.5612 31.5H15.6888ZM26.25 12.25H5.25V26.3375C5.94048 25.6326 6.79105 25.1049 7.72932 24.7995C8.66758 24.494 9.66576 24.4197 10.6389 24.5829C11.6121 24.7462 12.5314 25.1421 13.3186 25.7371C14.1058 26.332 14.7376 27.1084 15.1602 28H25.0898C25.3837 27.3823 25.7775 26.8205 26.25 26.3375V12.25ZM29.75 22.75H36.75V22.2513L33.236 17.5H29.75V22.75ZM30.625 33.25C31.3214 33.25 31.9893 32.9733 32.4818 32.4809C32.9742 31.9885 33.2509 31.3206 33.2509 30.6241C33.2509 29.9277 32.9742 29.2598 32.4818 28.7674C31.9893 28.2749 31.3214 27.9983 30.625 27.9983C29.9286 27.9983 29.2607 28.2749 28.7682 28.7674C28.2758 29.2598 27.9991 29.9277 27.9991 30.6241C27.9991 31.3206 28.2758 31.9885 28.7682 32.4809C29.2607 32.9733 29.9286 33.25 30.625 33.25ZM12.25 30.625C12.25 30.2803 12.1821 29.9389 12.0502 29.6205C11.9183 29.302 11.7249 29.0126 11.4812 28.7688C11.2374 28.5251 10.948 28.3317 10.6295 28.1998C10.3111 28.0679 9.96972 28 9.625 28C9.28028 28 8.93894 28.0679 8.62046 28.1998C8.30198 28.3317 8.0126 28.5251 7.76884 28.7688C7.52509 29.0126 7.33173 29.302 7.19982 29.6205C7.0679 29.9389 7 30.2803 7 30.625C7 31.3212 7.27656 31.9889 7.76884 32.4812C8.26113 32.9734 8.92881 33.25 9.625 33.25C10.3212 33.25 10.9889 32.9734 11.4812 32.4812C11.9734 31.9889 12.25 31.3212 12.25 30.625Z" fill="white"/>
</svg>
